<svg xmlns="http://www.w3.org/2000/svg" viewBox="0 0 1200 630">
  <rect width="1200" height="630" fill="#1d1e20"/>
  <rect y="626" width="1200" height="4" fill="#e6b422"/>
  <!-- Monitoring/ops icon - chart with pulse line -->
  <g transform="translate(420,110)" stroke="#e6b422" fill="none" stroke-width="4">
    <rect x="0" y="0" width="360" height="260" rx="12"/>
    <!-- Grid lines -->
    <line x1="0" y1="65" x2="360" y2="65" stroke-width="1" opacity="0.2"/>
    <line x1="0" y1="130" x2="360" y2="130" stroke-width="1" opacity="0.2"/>
    <line x1="0" y1="195" x2="360" y2="195" stroke-width="1" opacity="0.2"/>
    <line x1="90" y1="0" x2="90" y2="260" stroke-width="1" opacity="0.2"/>
    <line x1="180" y1="0" x2="180" y2="260" stroke-width="1" opacity="0.2"/>
    <line x1="270" y1="0" x2="270" y2="260" stroke-width="1" opacity="0.2"/>
    <!-- Pulse/chart line -->
    <polyline points="20,200 60,180 100,190 140,120 180,100 220,60 260,80 300,40 340,70" stroke-width="3" fill="none"/>
    <circle cx="300" cy="40" r="5" fill="#e6b422"/>
    <!-- Alert dot -->
    <circle cx="340" cy="70" r="8" fill="#e6b422" opacity="0.6"/>
    <circle cx="340" cy="70" r="4" fill="#e6b422"/>
  </g>
  <text x="600" y="500" text-anchor="middle" font-family="system-ui,-apple-system,sans-serif" font-size="36" font-weight="700" fill="#e6b422">OPERATIONS</text>
  <text x="600" y="545" text-anchor="middle" font-family="system-ui,-apple-system,sans-serif" font-size="18" fill="#888" font-weight="400">zolty.systems</text>
</svg>
